HIERARCHY
ROOT Hips
{
    OFFSET   0.000000   0.000000   0.000000
    CHANNELS 6 Xposition Yposition Zposition Zrotation Xrotation Yrotation
    JOINT Chest
    {
        OFFSET   0.000000   8.007230   0.000000
        CHANNELS 3 Zrotation Xrotation Yrotation
        JOINT Chest2
        {
            OFFSET   0.000000  22.077100   0.000000
            CHANNELS 3 Zrotation Xrotation Yrotation
            JOINT Neck
            {
                OFFSET   0.000000  23.254800  -0.000021
                CHANNELS 3 Zrotation Xrotation Yrotation
                JOINT Head
                {
                    OFFSET   0.000000  14.370000   1.956610
                    CHANNELS 3 Zrotation Xrotation Yrotation
                    End Site
                    {
                        OFFSET   0.000000  19.566000   0.000000
                    }
                }
            }
            JOINT LeftCollar
            {
                OFFSET   3.911900  19.017000  -0.467063
                CHANNELS 3 Zrotation Xrotation Yrotation
                JOINT LeftShoulder
                {
                    OFFSET  10.383700   0.000000   0.000000
                    CHANNELS 3 Zrotation Xrotation Yrotation
                    JOINT LeftElbow
                    {
                        OFFSET  26.662100   0.001529   0.000325
                        CHANNELS 3 Zrotation Xrotation Yrotation
                        JOINT LeftWrist
                        {
                            OFFSET  28.869000  -0.000011  -0.000096
                            CHANNELS 3 Zrotation Xrotation Yrotation
                            JOINT LeftFinger0
                            {
                                OFFSET   2.044650  -2.323460   3.252850
                                CHANNELS 3 Zrotation Xrotation Yrotation
                                JOINT LeftFinger01
                                {
                                    OFFSET   3.088130   0.000000   0.000000
                                    CHANNELS 3 Zrotation Xrotation Yrotation
                                    JOINT LeftFinger02
                                    {
                                        OFFSET   2.639460   0.000000   0.000000
                                        CHANNELS 3 Zrotation Xrotation Yrotation
                                        End Site
                                        {
                                            OFFSET   2.582190   0.000000   0.000000
                                        }
                                    }
                                }
                            }
                            JOINT LeftFinger1
                            {
                                OFFSET   8.364480   0.000000   3.252850
                                CHANNELS 3 Zrotation Xrotation Yrotation
                                JOINT LeftFinger11
                                {
                                    OFFSET   4.646930   0.000000   0.000000
                                    CHANNELS 3 Zrotation Xrotation Yrotation
                                    JOINT LeftFinger12
                                    {
                                        OFFSET   2.323460   0.000000   0.000000
                                        CHANNELS 3 Zrotation Xrotation Yrotation
                                        End Site
                                        {
                                            OFFSET   2.273050   0.000000   0.000000
                                        }
                                    }
                                }
                            }
                            JOINT LeftFinger2
                            {
                                OFFSET   8.364480   0.000016   1.078090
                                CHANNELS 3 Zrotation Xrotation Yrotation
                                JOINT LeftFinger21
                                {
                                    OFFSET   5.111620   0.000000   0.000000
                                    CHANNELS 3 Zrotation Xrotation Yrotation
                                    JOINT LeftFinger22
                                    {
                                        OFFSET   2.788160   0.000017   0.000000
                                        CHANNELS 3 Zrotation Xrotation Yrotation
                                        End Site
                                        {
                                            OFFSET   2.727660   0.000000   0.000000
                                        }
                                    }
                                }
                            }
                            JOINT LeftFinger3
                            {
                                OFFSET   7.899780   0.000015  -1.078090
                                CHANNELS 3 Zrotation Xrotation Yrotation
                                JOINT LeftFinger31
                                {
                                    OFFSET   4.646920   0.000000   0.000000
                                    CHANNELS 3 Zrotation Xrotation Yrotation
                                    JOINT LeftFinger32
                                    {
                                        OFFSET   2.323470   0.000000   0.000000
                                        CHANNELS 3 Zrotation Xrotation Yrotation
                                        End Site
                                        {
                                            OFFSET   2.273050   0.000000   0.000000
                                        }
                                    }
                                }
                            }
                            JOINT LeftFinger4
                            {
                                OFFSET   7.435090   0.000000  -3.252850
                                CHANNELS 3 Zrotation Xrotation Yrotation
                                JOINT LeftFinger41
                                {
                                    OFFSET   3.717550   0.000000   0.000000
                                    CHANNELS 3 Zrotation Xrotation Yrotation
                                    JOINT LeftFinger42
                                    {
                                        OFFSET   1.858760   0.000000   0.000000
                                        CHANNELS 3 Zrotation Xrotation Yrotation
                                        End Site
                                        {
                                            OFFSET   1.818440   0.000000   0.000000
                                        }
                                    }
                                }
                            }
                        }
                    }
                }
            }
            JOINT RightCollar
            {
                OFFSET  -3.911900  19.017000  -0.467062
                CHANNELS 3 Zrotation Xrotation Yrotation
                JOINT RightShoulder
                {
                    OFFSET -10.383700   0.000015   0.000000
                    CHANNELS 3 Zrotation Xrotation Yrotation
                    JOINT RightElbow
                    {
                        OFFSET -26.662100   0.001341   0.000385
                        CHANNELS 3 Zrotation Xrotation Yrotation
                        JOINT RightWrist
                        {
                            OFFSET -28.869000   0.000025  -0.000080
                            CHANNELS 3 Zrotation Xrotation Yrotation
                            JOINT RightFinger0
                            {
                                OFFSET  -2.044650  -2.323490   3.252850
                                CHANNELS 3 Zrotation Xrotation Yrotation
                                JOINT RightFinger01
                                {
                                    OFFSET  -3.088130   0.000000   0.000000
                                    CHANNELS 3 Zrotation Xrotation Yrotation
                                    JOINT RightFinger02
                                    {
                                        OFFSET  -2.639460   0.000000   0.000000
                                        CHANNELS 3 Zrotation Xrotation Yrotation
                                        End Site
                                        {
                                            OFFSET  -2.582190   0.000000   0.000000
                                        }
                                    }
                                }
                            }
                            JOINT RightFinger1
                            {
                                OFFSET  -8.364480   0.000000   3.252850
                                CHANNELS 3 Zrotation Xrotation Yrotation
                                JOINT RightFinger11
                                {
                                    OFFSET  -4.646930   0.000000   0.000000
                                    CHANNELS 3 Zrotation Xrotation Yrotation
                                    JOINT RightFinger12
                                    {
                                        OFFSET  -2.323470   0.000000   0.000000
                                        CHANNELS 3 Zrotation Xrotation Yrotation
                                        End Site
                                        {
                                            OFFSET  -2.273050   0.000000   0.000000
                                        }
                                    }
                                }
                            }
                            JOINT RightFinger2
                            {
                                OFFSET  -8.364480   0.000000   1.078090
                                CHANNELS 3 Zrotation Xrotation Yrotation
                                JOINT RightFinger21
                                {
                                    OFFSET  -5.111610   0.000000   0.000000
                                    CHANNELS 3 Zrotation Xrotation Yrotation
                                    JOINT RightFinger22
                                    {
                                        OFFSET  -2.788160   0.000000   0.000000
                                        CHANNELS 3 Zrotation Xrotation Yrotation
                                        End Site
                                        {
                                            OFFSET  -2.727660   0.000000   0.000000
                                        }
                                    }
                                }
                            }
                            JOINT RightFinger3
                            {
                                OFFSET  -7.899780   0.000000  -1.078090
                                CHANNELS 3 Zrotation Xrotation Yrotation
                                JOINT RightFinger31
                                {
                                    OFFSET  -4.646920   0.000000   0.000000
                                    CHANNELS 3 Zrotation Xrotation Yrotation
                                    JOINT RightFinger32
                                    {
                                        OFFSET  -2.323470   0.000000   0.000000
                                        CHANNELS 3 Zrotation Xrotation Yrotation
                                        End Site
                                        {
                                            OFFSET  -2.273050   0.000000   0.000000
                                        }
                                    }
                                }
                            }
                            JOINT RightFinger4
                            {
                                OFFSET  -7.435090   0.000000  -3.252850
                                CHANNELS 3 Zrotation Xrotation Yrotation
                                JOINT RightFinger41
                                {
                                    OFFSET  -3.717550   0.000000   0.000000
                                    CHANNELS 3 Zrotation Xrotation Yrotation
                                    JOINT RightFinger42
                                    {
                                        OFFSET  -1.858770   0.000000   0.000000
                                        CHANNELS 3 Zrotation Xrotation Yrotation
                                        End Site
                                        {
                                            OFFSET  -1.818440   0.000000   0.000000
                                        }
                                    }
                                }
                            }
                        }
                    }
                }
            }
        }
    }
    JOINT LeftHip
    {
        OFFSET   9.783010   0.000000   0.000000
        CHANNELS 3 Zrotation Xrotation Yrotation
        JOINT LeftKnee
        {
            OFFSET   0.000070 -41.789100   0.000028
            CHANNELS 3 Zrotation Xrotation Yrotation
            JOINT LeftAnkle
            {
                OFFSET   0.000087 -41.133200  -0.000100
                CHANNELS 3 Zrotation Xrotation Yrotation
                JOINT LeftToe
                {
                    OFFSET   0.000000  -6.358960  14.674500
                    CHANNELS 3 Zrotation Xrotation Yrotation
                    End Site
                    {
                        OFFSET   0.000000   0.000000   3.913200
                    }
                }
            }
        }
    }
    JOINT RightHip
    {
        OFFSET  -9.783020   0.000000   0.000000
        CHANNELS 3 Zrotation Xrotation Yrotation
        JOINT RightKnee
        {
            OFFSET   0.000044 -41.789100  -0.000870
            CHANNELS 3 Zrotation Xrotation Yrotation
            JOINT RightAnkle
            {
                OFFSET  -0.000090 -41.133200  -0.000245
                CHANNELS 3 Zrotation Xrotation Yrotation
                JOINT RightToe
                {
                    OFFSET   0.000000  -6.358960  14.674500
                    CHANNELS 3 Zrotation Xrotation Yrotation
                    End Site
                    {
                        OFFSET   0.000000   0.000000   3.913200
                    }
                }
            }
        }
    }
}
MOTION
Frames: 6
Frame Time:   0.016667
 -1.168030  89.609200  -0.781020  -3.971840  -9.832760  -5.734190   1.083920   5.674690   0.938700   2.089270  11.365500   1.781970   0.491054   0.893183  -0.000699   0.807212   1.810540   5.927850  -5.875490  -1.711900  -0.960846 -72.669700  14.441800   0.141213  -2.264170  -8.767380 -16.996200  17.483900 -18.588200   8.687900  37.653300  33.701500 -61.077300 -35.581100  -0.001777   0.003919 -12.790500  -0.000466   0.003710 -35.865200   9.357960 -12.675600 -30.196400  -0.002051  -0.002874 -21.137500   0.000402  -0.000191 -30.283900   1.484440  -2.540010 -45.475100   0.002176  -0.003442 -30.286400   0.002617  -0.002806 -28.759100   1.416300  -2.578660 -43.164800   0.005223  -0.009350 -28.747700   0.007017  -0.005348 -36.891300  -0.223122   0.297291 -55.337800   0.011585  -0.003163 -36.855000   0.010749  -0.003123  10.752500   0.504196   6.514790  68.491800  13.869100  -6.501920  -1.407120  -3.632560  13.918900 -14.196700 -10.192000   1.392320 -40.929200  32.028000  67.747000  25.868000  -0.001655  -0.000544   7.935000  -0.007749  -0.000699  28.408500   5.890880  10.735600  23.697200  -0.008695   0.001948  16.599600   0.000966   0.003017  28.182400   4.727810   8.772950  36.655300  -0.002680   0.005444  24.412400   0.006915   0.004288  27.725900   2.687620   5.099480  31.012200  -0.002467   0.003175  20.654100   0.004076   0.002693  36.924600  -0.234499  -0.316528  55.387800   0.001954   0.001991  36.888300   0.013168   0.000821   3.489710  11.967400   4.207300   1.868700   0.001216   9.166140  -2.478630  -2.567040   3.000750  -0.000000   0.000000   0.000000   4.688050   9.740340  -5.564950  -1.438200   2.766260  -8.881180   1.204820  -3.766430   4.388380  -0.000000   0.000000   0.000000
 -1.167980  89.609100  -0.780883  -3.969600  -9.863820  -5.703510   1.092450   5.679010   0.942021   2.106000  11.374400   1.788110   0.446814   0.906391  -0.000730   0.734477   1.837520   5.988790  -5.870130  -1.674310  -0.916854 -72.772300  14.425800  -0.009016  -2.208490  -8.943900 -16.945400  17.567300 -18.528000   8.728500  37.675100  33.703800 -60.991700 -35.570100  -0.001777   0.003913 -12.785100  -0.000477   0.003718 -35.869900   9.339910 -12.650200 -30.196500  -0.002041  -0.002871 -21.137600   0.000407  -0.000196 -30.285200   1.475380  -2.524310 -45.476000   0.002179  -0.003424 -30.287000   0.002620  -0.002808 -28.761000   1.407800  -2.562660 -43.160300   0.005225  -0.009354 -28.744800   0.007015  -0.005355 -36.879800  -0.220236   0.293578 -55.320500   0.011580  -0.003155 -36.843500   0.010748  -0.003125  10.746400   0.503634   6.509590  68.485600  13.864800  -6.495870  -1.415420  -3.632540  13.918900 -14.190900 -10.191500   1.392510 -40.934300  32.048700  67.778700  25.870800  -0.001661  -0.000553   7.935970  -0.007748  -0.000692  28.417300   5.890760  10.735600  23.705000  -0.008692   0.001946  16.599600   0.000965   0.003006  28.183400   4.727950   8.761480  36.667800  -0.002689   0.005444  24.420800   0.006909   0.004286  27.726900   2.681640   5.087720  31.021200  -0.002466   0.003169  20.660100   0.004072   0.002688  36.931500  -0.234868  -0.316468  55.397900   0.001945   0.001985  36.895200   0.013165   0.000808   3.490310  11.969800   4.199390   1.873120   0.051211   9.157970  -2.488770  -2.583000   2.982450  -0.000000   0.000000   0.000000   4.691340   9.763110  -5.571440  -1.439810   2.783350  -8.881950   1.204690  -3.787980   4.361110   0.000000   0.000000   0.000000
 -1.167930  89.609100  -0.780685  -3.964660  -9.919540  -5.643590   1.106600   5.688640   0.946617   2.134030  11.394000   1.795450   0.368864   0.927388  -0.000787   0.606289   1.880310   6.105690  -5.860670  -1.619100  -0.842835 -72.951600  14.409600  -0.286100  -2.090370  -9.259480 -16.846600  17.715800 -18.465700   8.815070  37.697000  33.706000 -60.906100 -35.559100  -0.001775   0.003908 -12.779600  -0.000488   0.003733 -35.874500   9.321860 -12.624800 -30.197300  -0.002019  -0.002857 -21.138100   0.000419  -0.000208 -30.289700   1.466330  -2.508610 -45.482500   0.002189  -0.003379 -30.291300   0.002631  -0.002812 -28.770100   1.399300  -2.546670 -43.155900   0.005227  -0.009366 -28.741800   0.007011  -0.005377 -36.868300  -0.217351   0.289864 -55.303300   0.011571  -0.003139 -36.832000   0.010745  -0.003128  10.736100   0.501428   6.504390  68.473700  13.860700  -6.485950  -1.423720  -3.632530  13.918900 -14.182100 -10.188400   1.392700 -40.941700  32.078800  67.824800  25.877100  -0.001671  -0.000564   7.938530  -0.007747  -0.000682  28.429000   5.890550  10.735700  23.713600  -0.008688   0.001939  16.599600   0.000963   0.002977  28.184800   4.728160   8.745400  36.686600  -0.002709   0.005439  24.433300   0.006890   0.004282  27.728300   2.672990   5.070830  31.033200  -0.002465   0.003154  20.668100   0.004064   0.002677  36.940600  -0.235687  -0.316343  55.411700   0.001922   0.001972  36.904300   0.013156   0.000773   3.491050  11.986000   4.186060   1.881990   0.101212   9.137940  -2.500880  -2.599000   2.950540  -0.000000   0.000000  -0.000000   4.696960   9.804640  -5.581120  -1.441760   2.813530  -8.886670   1.204160  -3.823740   4.309150  -0.000000   0.000000   0.000000
 -1.170970  89.609000  -0.780579  -3.956990  -9.971790  -5.577650   1.117580   5.700700   0.948389   2.156010  11.418300   1.796920   0.298836   0.941224  -0.000862   0.491162   1.908250   6.227140  -5.849840  -1.590140  -0.781551 -73.113100  14.509500  -0.566712  -1.939850  -9.543410 -16.723800  17.877600 -18.505400   8.937260  37.625600  33.661100 -60.964500 -35.579400  -0.001769   0.003911 -12.789700  -0.000481   0.003746 -35.939000   9.368460 -12.658400 -30.257100  -0.001992  -0.002829 -21.180000   0.000438  -0.000228 -30.329600   1.492660  -2.548400 -45.544700   0.002205  -0.003314 -30.332800   0.002646  -0.002818 -28.803100   1.424060  -2.587390 -43.224200   0.005224  -0.009388 -28.787400   0.007008  -0.005413 -36.921600  -0.231014   0.307388 -55.383400   0.011565  -0.003120 -36.885300   0.010737  -0.003133  10.727300   0.498055   6.509960  68.463200  13.875600  -6.479030  -1.419930  -3.637640  13.915100 -14.175700 -10.171200   1.392570 -40.947700  32.094400  67.849000  25.886400  -0.001682  -0.000566   7.943050  -0.007747  -0.000677  28.432300   5.890260  10.735700  23.714500  -0.008691   0.001923  16.599700   0.000969   0.002934  28.185500   4.728350   8.738430  36.697600  -0.002735   0.005430  24.441700   0.006858   0.004281  27.729000   2.668270   5.062050  31.035200  -0.002467   0.003127  20.669500   0.004054   0.002660  36.942800  -0.236820  -0.316175  55.415900   0.001884   0.001955  36.906600   0.013141   0.000715   3.492840  12.025800   4.174730   1.888500   0.093505   9.107930  -2.504330  -2.586390   2.923530  -0.000000   0.000000   0.000000   4.701640   9.844590  -5.586360  -1.442080   2.841660  -8.897430   1.202750  -3.850870   4.253980  -0.000000   0.000000   0.000000
 -1.175360  89.608900  -0.780534  -3.947100 -10.030000  -5.500330   1.128950   5.717130   0.948901   2.178500  11.451300   1.797320   0.221368   0.955495  -0.000910   0.363860   1.937120   6.375520  -5.842240  -1.571040  -0.720607 -73.278600  14.696100  -0.874965  -1.764950  -9.879740 -16.611900  18.001600 -18.545300   9.054630  37.571800  33.589600 -61.054800 -35.599700  -0.001764   0.003918 -12.799800  -0.000472   0.003760 -36.041100   9.432200 -12.692600 -30.348400  -0.001959  -0.002796 -21.243900   0.000464  -0.000254 -30.389300   1.519000  -2.588200 -45.635500   0.002225  -0.003233 -30.393300   0.002668  -0.002827 -28.847900   1.448820  -2.628120 -43.326500   0.005218  -0.009414 -28.855500   0.007005  -0.005461 -37.006400  -0.252761   0.335248 -55.510900   0.011557  -0.003096 -36.970200   0.010726  -0.003138  10.718600   0.491030   6.526090  68.449900  13.904600  -6.471880  -1.408640  -3.651100  13.904800 -14.172700 -10.144400   1.392080 -40.947600  32.102700  67.862100  25.895500  -0.001694  -0.000566   7.947720  -0.007749  -0.000674  28.432800   5.890080  10.735700  23.714700  -0.008693   0.001902  16.599800   0.000976   0.002878  28.185700   4.728570   8.736070  36.705500  -0.002766   0.005417  24.445900   0.006819   0.004278  27.729200   2.666230   5.058410  31.037100  -0.002469   0.003094  20.670700   0.004042   0.002638  36.943500  -0.238104  -0.316006  55.417300   0.001834   0.001932  36.907200   0.013122   0.000642   3.496410  12.077400   4.163970   1.891830   0.077988   9.071310  -2.507150  -2.563300   2.891920  -0.000000   0.000000   0.000000   4.706380   9.890440  -5.590530  -1.440870   2.871020  -8.912900   1.201720  -3.880110   4.190850  -0.000000   0.000000  -0.000000
 -1.177450  89.608800  -0.781973  -3.936830 -10.094000  -5.414480   1.141570   5.739450   0.946495   2.203730  11.496100   1.791850   0.134633   0.972773  -0.000880   0.221331   1.972530   6.560950  -5.846080  -1.560270  -0.659721 -73.438100  14.895600  -1.192160  -1.590280 -10.329100 -16.556400  18.024900 -18.484400   9.104390  37.536600  33.503000 -61.065400 -35.593700  -0.001766   0.003926 -12.796800  -0.000469   0.003775 -36.109300   9.450910 -12.683700 -30.405100  -0.001919  -0.002765 -21.283600   0.000503  -0.000286 -30.441200   1.512650  -2.573580 -45.712900   0.002246  -0.003140 -30.444800   0.002696  -0.002841 -28.892700   1.442660  -2.613430 -43.393700   0.005213  -0.009441 -28.900200   0.007000  -0.005519 -37.068800  -0.268793   0.355697 -55.604600   0.011544  -0.003066 -37.032600   0.010710  -0.003142  10.709900   0.478453   6.555640  68.429200  13.939300  -6.460180  -1.387440  -3.675010  13.887400 -14.174800 -10.115200   1.388220 -40.944100  32.104000  67.864300  25.900800  -0.001705  -0.000543   7.950550  -0.007757  -0.000682  28.432400   5.890100  10.735600  23.714700  -0.008693   0.001882  16.599800   0.000973   0.002811  28.185700   4.728780   8.737630  36.710800  -0.002804   0.005402  24.445200   0.006776   0.004271  27.729000   2.668550   5.062220  31.046100  -0.002468   0.003058  20.676800   0.004027   0.002612  36.944400  -0.239308  -0.315883  55.418600   0.001775   0.001904  36.908100   0.013097   0.000561   3.501350  12.135400   4.156290   1.895220   0.054464   9.032770  -2.509070  -2.534160   2.851070  -0.000000   0.000000  -0.000000   4.710650   9.942480  -5.593680  -1.437020   2.899800  -8.934680   1.202220  -3.913520   4.123800  -0.000000   0.000000   0.000000
